<svg xmlns="http://www.w3.org/2000/svg" viewBox="0 0 240 240" role="img" aria-label="Jardinage">
  <defs><linearGradient id="bg" x1="0" y1="0" x2="1" y2="1"><stop stop-color="#F8FFF0"/><stop offset="1" stop-color="#DDF2B6"/></linearGradient><filter id="shadow" x="-20%" y="-20%" width="140%" height="140%"><feDropShadow dx="0" dy="12" stdDeviation="9" flood-color="#2A2140" flood-opacity=".15"/></filter></defs>
  <rect width="240" height="240" rx="38" fill="url(#bg)"/>
  <path d="M22 184c39-30 81-29 126-8 24 11 47 14 70 7" fill="none" stroke="#fff" stroke-width="13" stroke-linecap="round" opacity=".62"/>
  <g filter="url(#shadow)" stroke="#2A2140" stroke-width="5" stroke-linecap="round" stroke-linejoin="round">
    <path d="M121 174V91" fill="none"/>
    <path d="M120 112c-31 0-51-21-51-54 31 0 51 21 51 54Z" fill="#1FAF98"/>
    <path d="M122 102c31 0 51-21 51-54-31 0-51 21-51 54Z" fill="#8BD66A"/>
    <rect x="69" y="174" width="102" height="28" rx="9" fill="#FF8A65"/>
    <path d="M87 174l-8-33M153 174l8-33" fill="none"/>
    <path d="M68 141h28M144 141h28"/>
  </g>
  <circle cx="51" cy="56" r="7" fill="#FFC145"/><circle cx="190" cy="126" r="5" fill="#FF6B5B"/>
</svg>
