<svg xmlns="http://www.w3.org/2000/svg" viewBox="0 0 240 240" role="img" aria-label="Cuisine">
  <defs><linearGradient id="bg" x1="0" y1="0" x2="1" y2="1"><stop stop-color="#FFF6EE"/><stop offset="1" stop-color="#FFD8CB"/></linearGradient><filter id="shadow" x="-20%" y="-20%" width="140%" height="140%"><feDropShadow dx="0" dy="12" stdDeviation="9" flood-color="#2A2140" flood-opacity=".16"/></filter></defs>
  <rect width="240" height="240" rx="38" fill="url(#bg)"/>
  <circle cx="43" cy="48" r="31" fill="#fff" opacity=".58"/><circle cx="205" cy="198" r="48" fill="#FFC145" opacity=".18"/>
  <g filter="url(#shadow)" stroke="#2A2140" stroke-width="5" stroke-linecap="round" stroke-linejoin="round">
    <rect x="58" y="108" width="124" height="60" rx="18" fill="#FF6B5B"/>
    <path d="M58 126H35M182 126h23"/>
    <path d="M74 108c0-21 19-38 46-38s46 17 46 38" fill="#fffdf8"/>
    <path d="M84 194h72"/>
    <path d="M88 168l-13 26M152 168l13 26"/>
    <path d="M91 48c-5 13 8 16 2 30M120 39c-5 13 8 16 2 30M149 48c-5 13 8 16 2 30" fill="none" stroke="#9B6BFF"/>
  </g>
  <path d="M190 66c9 4 15 11 17 20" fill="none" stroke="#1FAF98" stroke-width="6" stroke-linecap="round"/>
</svg>
