<svg xmlns="http://www.w3.org/2000/svg" viewBox="0 0 240 240" role="img" aria-label="Ménage">
  <defs><linearGradient id="bg" x1="0" y1="0" x2="1" y2="1"><stop stop-color="#F0FFF9"/><stop offset="1" stop-color="#BFF1E8"/></linearGradient><filter id="shadow" x="-20%" y="-20%" width="140%" height="140%"><feDropShadow dx="0" dy="12" stdDeviation="9" flood-color="#2A2140" flood-opacity=".15"/></filter></defs>
  <rect width="240" height="240" rx="38" fill="url(#bg)"/>
  <circle cx="41" cy="44" r="28" fill="#fff" opacity=".7"/><circle cx="203" cy="184" r="49" fill="#fff" opacity=".42"/>
  <g filter="url(#shadow)" stroke="#2A2140" stroke-width="5" stroke-linecap="round" stroke-linejoin="round">
    <path d="M128 44l30 116" fill="none"/>
    <path d="M130 146c22-5 45 6 54 28l-68 18c-3-23 3-40 14-46Z" fill="#1FAF98"/>
    <path d="M112 192c24 11 55 2 76-14" fill="none"/>
    <rect x="59" y="82" width="47" height="87" rx="13" fill="#fffdf8"/>
    <rect x="69" y="64" width="27" height="23" rx="7" fill="#FFC145"/>
    <path d="M69 117h27M69 136h27" fill="none" stroke="#1FAF98"/>
  </g>
  <g fill="#FF6B5B"><circle cx="47" cy="116" r="5"/><circle cx="36" cy="136" r="4"/><circle cx="52" cy="151" r="3"/><circle cx="196" cy="82" r="5"/></g>
</svg>
